<?xml version="1.0" encoding="ISO-8859-1"?>
<!DOCTYPE svg PUBLIC "-//W3C//DTD SVG 1.1//EN" "http://www.w3.org/Graphics/SVG/1.1/DTD/svg11.dtd">

<svg xmlns="http://www.w3.org/2000/svg" width="945" height="1020">
  <defs>
    <marker id="Arrow1317452683" viewBox="0 0 10 10" orient="auto" refX="10" refY="5" markerWidth="10" markerHeight="10">
      <path d="M 0 0 L 10 5 L 0 10 z" stroke="rgb(0,0,0)" fill="rgb(0,0,0)" />
    </marker>
    <marker id="Arrow-108970061" viewBox="0 0 10 10" orient="auto" refX="10" refY="5" markerWidth="10" markerHeight="10">
      <path d="M 0 0 L 10 5 L 0 10 z" stroke="rgb(0,0,0)" fill="rgb(0,0,0)" />
    </marker>
    <marker id="Arrow1232816008" viewBox="0 0 10 10" orient="auto" refX="10" refY="5" markerWidth="10" markerHeight="10">
      <path d="M 0 0 L 10 5 L 0 10 z" stroke="rgb(0,0,0)" fill="rgb(0,0,0)" />
    </marker>
    <marker id="Arrow666174767" viewBox="0 0 10 10" orient="auto" refX="10" refY="5" markerWidth="10" markerHeight="10">
      <path d="M 0 0 L 10 5 L 0 10 z" stroke="rgb(0,0,0)" fill="rgb(0,0,0)" />
    </marker>
    <marker id="Arrow1393106912" viewBox="0 0 10 10" orient="auto" refX="10" refY="5" markerWidth="10" markerHeight="10">
      <path d="M 0 0 L 10 5 L 0 10 z" stroke="rgb(0,0,0)" fill="rgb(0,0,0)" />
    </marker>
    <marker id="Arrow-88280271" viewBox="0 0 10 10" orient="auto" refX="10" refY="5" markerWidth="10" markerHeight="10">
      <path d="M 0 0 L 10 5 L 0 10 z" stroke="rgb(0,0,0)" fill="rgb(0,0,0)" />
    </marker>
    <marker id="Arrow28006863" viewBox="0 0 10 10" orient="auto" refX="10" refY="5" markerWidth="10" markerHeight="10">
      <path d="M 0 0 L 10 5 L 0 10 z" stroke="rgb(0,0,0)" fill="rgb(0,0,0)" />
    </marker>
    <marker id="TBar1232014960" viewBox="0 0 1 15" orient="auto" refX="1" refY="8" markerWidth="2" markerHeight="20">
      <rect x="1" y="1" width="1" height="15" stroke="rgb(0,0,0)" fill="rgb(0,0,0)" />
    </marker>
    <marker id="TBar1257393078" viewBox="0 0 1 15" orient="auto" refX="1" refY="8" markerWidth="2" markerHeight="20">
      <rect x="1" y="1" width="1" height="15" stroke="rgb(0,0,0)" fill="rgb(0,0,0)" />
    </marker>
    <marker id="Arrow2113702190" viewBox="0 0 10 10" orient="auto" refX="10" refY="5" markerWidth="10" markerHeight="10">
      <path d="M 0 0 L 10 5 L 0 10 z" stroke="rgb(0,0,0)" fill="rgb(0,0,0)" />
    </marker>
    <marker id="Arrow91915363" viewBox="0 0 10 10" orient="auto" refX="10" refY="5" markerWidth="10" markerHeight="10">
      <path d="M 0 0 L 10 5 L 0 10 z" stroke="rgb(0,0,0)" fill="rgb(0,0,0)" />
    </marker>
    <marker id="Arrow752775558" viewBox="0 0 10 10" orient="auto" refX="10" refY="5" markerWidth="10" markerHeight="10">
      <path d="M 0 0 L 10 5 L 0 10 z" stroke="rgb(0,0,0)" fill="rgb(0,0,0)" />
    </marker>
    <marker id="TBar1334759317" viewBox="0 0 1 15" orient="auto" refX="1" refY="8" markerWidth="2" markerHeight="20">
      <rect x="1" y="1" width="1" height="15" stroke="rgb(0,0,0)" fill="rgb(0,0,0)" />
    </marker>
    <marker id="Arrow2028675792" viewBox="0 0 10 10" orient="auto" refX="10" refY="5" markerWidth="10" markerHeight="10">
      <path d="M 0 0 L 10 5 L 0 10 z" stroke="rgb(0,0,0)" fill="rgb(0,0,0)" />
    </marker>
    <marker id="Arrow2071565778" viewBox="0 0 10 10" orient="auto" refX="10" refY="5" markerWidth="10" markerHeight="10">
      <path d="M 0 0 L 10 5 L 0 10 z" stroke="rgb(0,0,0)" fill="rgb(0,0,0)" />
    </marker>
    <marker id="TBar2047063145" viewBox="0 0 1 15" orient="auto" refX="1" refY="8" markerWidth="2" markerHeight="20">
      <rect x="1" y="1" width="1" height="15" stroke="rgb(0,0,0)" fill="rgb(0,0,0)" />
    </marker>
    <marker id="TBar-393576523" viewBox="0 0 1 15" orient="auto" refX="1" refY="8" markerWidth="2" markerHeight="20">
      <rect x="1" y="1" width="1" height="15" stroke="rgb(0,0,0)" fill="rgb(0,0,0)" />
    </marker>
    <marker id="Arrow-31036416" viewBox="0 0 10 10" orient="auto" refX="10" refY="5" markerWidth="10" markerHeight="10">
      <path d="M 0 0 L 10 5 L 0 10 z" stroke="rgb(0,0,0)" fill="rgb(0,0,0)" />
    </marker>
    <marker id="Arrow2068493475" viewBox="0 0 10 10" orient="auto" refX="10" refY="5" markerWidth="10" markerHeight="10">
      <path d="M 0 0 L 10 5 L 0 10 z" stroke="rgb(0,0,0)" fill="rgb(0,0,0)" />
    </marker>
    <marker id="Arrow2045687031" viewBox="0 0 10 10" orient="auto" refX="10" refY="5" markerWidth="10" markerHeight="10">
      <path d="M 0 0 L 10 5 L 0 10 z" stroke="rgb(0,0,0)" fill="rgb(0,0,0)" />
    </marker>
    <marker id="Arrow1293829970" viewBox="0 0 10 10" orient="auto" refX="10" refY="5" markerWidth="10" markerHeight="10">
      <path d="M 0 0 L 10 5 L 0 10 z" stroke="rgb(0,0,0)" fill="rgb(0,0,0)" />
    </marker>
  </defs>
  <line x1="60" y1="143" x2="526" y2="143" stroke="rgb(0,0,0)" />
  <line x1="60" y1="130" x2="526" y2="130" stroke="rgb(0,0,0)" />
  <line x1="256" y1="123" x2="176" y2="183" stroke="rgb(0,0,0)" stroke-dasharray="5,2" />
  <line x1="256" y1="160" x2="186" y2="183" stroke="rgb(0,0,0)" stroke-dasharray="5,2" />
  <line x1="256" y1="183" x2="86" y2="183" stroke="rgb(0,0,0)" stroke-dasharray="5,2" />
  <line x1="86" y1="183" x2="73" y2="190" stroke="rgb(0,0,0)" stroke-dasharray="5,2" />
  <line x1="73" y1="193" x2="73" y2="223" stroke="rgb(0,0,0)" stroke-dasharray="5,2" marker-end="url(#Arrow1317452683)" />
  <line x1="296" y1="273" x2="330" y2="300" stroke="rgb(0,0,0)" stroke-dasharray="5,2" marker-end="url(#Arrow-108970061)" />
  <line x1="383" y1="300" x2="450" y2="263" stroke="rgb(0,0,0)" stroke-dasharray="5,2" marker-end="url(#Arrow1232816008)" />
  <line x1="450" y1="340" x2="500" y2="370" stroke="rgb(0,0,0)" marker-end="url(#Arrow666174767)" />
  <line x1="636" y1="373" x2="656" y2="373" stroke="rgb(0,0,0)" marker-end="url(#Arrow1393106912)" />
  <line x1="760" y1="373" x2="783" y2="373" stroke="rgb(0,0,0)" marker-end="url(#Arrow-88280271)" />
  <line x1="303" y1="370" x2="273" y2="390" stroke="rgb(0,0,0)" stroke-dasharray="5,2" marker-end="url(#Arrow28006863)" />
  <line x1="276" y1="436" x2="323" y2="460" stroke="rgb(0,0,0)" marker-end="url(#TBar1232014960)" />
  <line x1="360" y1="370" x2="360" y2="446" stroke="rgb(0,0,0)" marker-end="url(#TBar1257393078)" />
  <line x1="373" y1="373" x2="440" y2="413" stroke="rgb(0,0,0)" stroke-dasharray="5,2" marker-end="url(#Arrow2113702190)" />
  <line x1="360" y1="496" x2="360" y2="526" stroke="rgb(0,0,0)" marker-end="url(#Arrow91915363)" />
  <line x1="360" y1="510" x2="360" y2="480" stroke="rgb(0,0,0)" marker-end="url(#Arrow752775558)" />
  <line x1="453" y1="503" x2="373" y2="503" stroke="rgb(0,0,0)" marker-end="url(#TBar1334759317)" />
  <line x1="453" y1="503" x2="466" y2="490" stroke="rgb(0,0,0)" />
  <line x1="466" y1="490" x2="466" y2="446" stroke="rgb(0,0,0)" />
  <line x1="210" y1="510" x2="323" y2="480" stroke="rgb(0,0,0)" stroke-dasharray="5,2" marker-end="url(#Arrow2028675792)" />
  <line x1="446" y1="603" x2="450" y2="613" stroke="rgb(0,0,0)" marker-end="url(#Arrow2071565778)" />
  <line x1="440" y1="590" x2="446" y2="576" stroke="rgb(0,0,0)" />
  <line x1="446" y1="576" x2="456" y2="570" stroke="rgb(0,0,0)" />
  <line x1="93" y1="670" x2="436" y2="670" stroke="rgb(0,0,0)" />
  <line x1="93" y1="680" x2="430" y2="680" stroke="rgb(0,0,0)" />
  <line x1="273" y1="636" x2="273" y2="713" stroke="rgb(0,0,0)" />
  <line x1="273" y1="713" x2="290" y2="730" stroke="rgb(0,0,0)" />
  <line x1="290" y1="730" x2="320" y2="730" stroke="rgb(0,0,0)" marker-end="url(#TBar2047063145)" />
  <line x1="330" y1="713" x2="330" y2="766" stroke="rgb(0,0,0)" marker-end="url(#TBar-393576523)" />
  <line x1="490" y1="633" x2="570" y2="713" stroke="rgb(0,0,0)" marker-end="url(#Arrow-31036416)" />
  <line x1="436" y1="670" x2="486" y2="720" stroke="rgb(0,0,0)" />
  <line x1="430" y1="680" x2="480" y2="730" stroke="rgb(0,0,0)" />
  <line x1="573" y1="650" x2="563" y2="633" stroke="rgb(0,0,0)" marker-end="url(#Arrow2068493475)" />
  <line x1="573" y1="650" x2="586" y2="656" stroke="rgb(0,0,0)" />
  <line x1="586" y1="656" x2="633" y2="656" stroke="rgb(0,0,0)" />
  <line x1="646" y1="740" x2="673" y2="766" stroke="rgb(0,0,0)" marker-end="url(#Arrow2045687031)" />
  <line x1="433" y1="163" x2="363" y2="303" stroke="rgb(0,0,0)" stroke-dasharray="5,2" marker-end="url(#Arrow1293829970)" />
  <g transform="translate(360.0, 606.0)">
    <g transform="rotate(180.00001984784282)">
      <path d="M -86.5 0  a 86.5 43.0 0 0 0 173.0 0" stroke="rgb(0,0,0)" fill="none" />
    </g>
  </g>
  <g transform="translate(466.0, 566.0)">
    <g transform="rotate(0.0)">
      <ellipse cx="0" cy="0" rx="10" ry="10" stroke="rgb(0,0,0)" fill="none" />
    </g>
  </g>
  <g transform="translate(716.0, 140.0)">
    <g transform="rotate(0.0)">
      <rect x="-180.0" y="-60.0" width="360" height="120" stroke="rgb(0,0,0)" fill="none" />
    </g>
  </g>
  <g transform="translate(446.0, 340.0)">
    <g transform="rotate(270.0)">
      <path d="M -33.0 4.0 q 0 -4.0 4.0 -4.0 L -4.0 0 Q 0 0 0 -4.0 Q 0 0 4.0 0 L 29.0 0 q 4.0 0 4.0 4.0" stroke="rgb(0,0,0)" fill="none" />
    </g>
  </g>
  <g transform="translate(633.0, 373.0)">
    <g transform="rotate(270.0)">
      <path d="M -26.5 4.0 q 0 -4.0 4.0 -4.0 L -4.0 0 Q 0 0 0 -4.0 Q 0 0 4.0 0 L 22.5 0 q 4.0 0 4.0 4.0" stroke="rgb(0,0,0)" fill="none" />
    </g>
  </g>
  <g transform="translate(643.0, 656.0)">
    <g transform="rotate(90.0)">
      <path d="M -23.0 4.0 q 0 -4.0 4.0 -4.0 L -4.0 0 Q 0 0 0 -4.0 Q 0 0 4.0 0 L 19.0 0 q 4.0 0 4.0 4.0" stroke="rgb(0,0,0)" fill="none" />
    </g>
  </g>
  <text x="830" y="385" font-family="Arial" font-size="12pt" text-anchor="middle" dy="-4pt" font-weight="bold" fill="rgb(0,0,128)">Apoptosis</text>
  <text x="466" y="262" font-family="Arial" font-size="12pt" text-anchor="middle" dy="-4pt" font-weight="bold" fill="rgb(0,0,128)">Cytoskeleton</text>
  <text x="470" y="633" font-family="Arial" font-size="10pt" text-anchor="middle" dy="-3pt" font-weight="bold" fill="rgb(0,0,0)">Phosphorylated</text>
  <text x="530" y="633" font-family="Symbol" font-size="10pt" text-anchor="middle" dy="-3pt" font-weight="bold" fill="rgb(0,0,0)">B</text>
  <text x="563" y="633" font-family="Arial" font-size="10pt" text-anchor="middle" dy="-3pt" font-weight="bold" fill="rgb(0,0,0)">-Catenin</text>
  <text x="466" y="578" font-family="Arial" font-size="12pt" text-anchor="middle" dy="-4pt" font-weight="bold" fill="rgb(0,0,0)">P</text>
  <text x="123" y="712" font-family="Arial" font-size="12pt" text-anchor="middle" dy="-4pt" font-weight="bold" fill="rgb(0,0,0)">Nucleus</text>
  <text x="203" y="779" font-family="Arial" font-size="9pt" text-anchor="middle" dy="-3pt" font-weight="bold" fill="rgb(0,0,0)">Transcriptional Activation</text>
  <text x="613" y="749" font-family="Arial" font-size="9pt" text-anchor="middle" dy="-3pt" font-weight="bold" fill="rgb(0,0,0)">-Catenin</text>
  <text x="583" y="749" font-family="Symbol" font-size="9pt" text-anchor="middle" dy="-3pt" font-weight="bold" fill="rgb(0,0,0)">B</text>
  <text x="716" y="615" font-family="Arial" font-size="9pt" text-anchor="middle" dy="-3pt" font-weight="bold" fill="rgb(0,0,0)">Recruitment to Unknown</text>
  <text x="716" y="629" font-family="Arial" font-size="9pt" text-anchor="middle" dy="-3pt" font-weight="bold" fill="rgb(0,0,0)">Ubiquitin Conjugating Enzyme</text>
  <text x="606" y="735" font-family="Arial" font-size="9pt" text-anchor="middle" dy="-3pt" font-weight="bold" fill="rgb(0,0,0)">Ubiquitin Tagged</text>
  <text x="756" y="792" font-family="Arial" font-size="12pt" text-anchor="middle" dy="-4pt" font-weight="bold" fill="rgb(0,0,128)">26S Proteasome Degredation</text>
  <text x="706" y="105" font-family="Arial" font-size="12pt" text-anchor="middle" dy="-4pt" font-weight="bold" fill="rgb(0,0,0)">Frizzled Ligands</text>
  <rect x="310" y="690" width="86" height="20" stroke="rgb(0,0,0)" fill="white" />
  <text x="353" y="710" font-family="Arial" font-size="10pt" text-anchor="middle" dy="-3pt" fill="rgb(0,0,0)">TCF-1/LEF</text>
  <rect x="420" y="126" width="60" height="20" stroke="rgb(0,0,0)" fill="white" />
  <text x="450" y="146" font-family="Arial" font-size="10pt" text-anchor="middle" dy="-3pt" fill="rgb(0,0,0)">LDLR</text>
  <rect x="543" y="110" width="60" height="20" stroke="rgb(0,0,0)" fill="white" />
  <text x="573" y="130" font-family="Arial" font-size="10pt" text-anchor="middle" dy="-3pt" fill="rgb(0,0,0)">WNT1</text>
  <rect x="543" y="130" width="60" height="20" stroke="rgb(0,0,0)" fill="white" />
  <text x="573" y="150" font-family="Arial" font-size="10pt" text-anchor="middle" dy="-3pt" fill="rgb(0,0,0)">WNT2</text>
  <rect x="543" y="150" width="60" height="20" stroke="rgb(0,0,0)" fill="white" />
  <text x="573" y="170" font-family="Arial" font-size="10pt" text-anchor="middle" dy="-3pt" fill="rgb(0,0,0)">WNT2B</text>
  <rect x="543" y="170" width="60" height="20" stroke="rgb(0,0,0)" fill="white" />
  <text x="573" y="190" font-family="Arial" font-size="10pt" text-anchor="middle" dy="-3pt" fill="rgb(0,0,0)">WNT3</text>
  <rect x="630" y="110" width="60" height="20" stroke="rgb(0,0,0)" fill="white" />
  <text x="660" y="130" font-family="Arial" font-size="10pt" text-anchor="middle" dy="-3pt" fill="rgb(0,0,0)">WNT3A</text>
  <rect x="630" y="130" width="60" height="20" stroke="rgb(0,0,0)" fill="white" />
  <text x="660" y="150" font-family="Arial" font-size="10pt" text-anchor="middle" dy="-3pt" fill="rgb(0,0,0)">WNT4</text>
  <rect x="630" y="150" width="60" height="20" stroke="rgb(0,0,0)" fill="white" />
  <text x="660" y="170" font-family="Arial" font-size="10pt" text-anchor="middle" dy="-3pt" fill="rgb(0,0,0)">WNT5A</text>
  <rect x="630" y="170" width="60" height="20" stroke="rgb(0,0,0)" fill="white" />
  <text x="660" y="190" font-family="Arial" font-size="10pt" text-anchor="middle" dy="-3pt" fill="rgb(0,0,0)">WNT5B</text>
  <rect x="716" y="110" width="60" height="20" stroke="rgb(0,0,0)" fill="white" />
  <text x="746" y="130" font-family="Arial" font-size="10pt" text-anchor="middle" dy="-3pt" fill="rgb(0,0,0)">WNT6</text>
  <rect x="716" y="130" width="60" height="20" stroke="rgb(0,0,0)" fill="white" />
  <text x="746" y="150" font-family="Arial" font-size="10pt" text-anchor="middle" dy="-3pt" fill="rgb(0,0,0)">WNT7A</text>
  <rect x="716" y="150" width="60" height="20" stroke="rgb(0,0,0)" fill="white" />
  <text x="746" y="170" font-family="Arial" font-size="10pt" text-anchor="middle" dy="-3pt" fill="rgb(0,0,0)">WNT7B</text>
  <rect x="716" y="170" width="60" height="20" stroke="rgb(0,0,0)" fill="white" />
  <text x="746" y="190" font-family="Arial" font-size="10pt" text-anchor="middle" dy="-3pt" fill="rgb(0,0,0)">WNT10A</text>
  <rect x="803" y="110" width="60" height="20" stroke="rgb(0,0,0)" fill="white" />
  <text x="833" y="130" font-family="Arial" font-size="10pt" text-anchor="middle" dy="-3pt" fill="rgb(0,0,0)">WNT10B</text>
  <rect x="803" y="130" width="60" height="20" stroke="rgb(0,0,0)" fill="white" />
  <text x="833" y="150" font-family="Arial" font-size="10pt" text-anchor="middle" dy="-3pt" fill="rgb(0,0,0)">WNT11</text>
  <rect x="803" y="150" width="60" height="20" stroke="rgb(0,0,0)" fill="white" />
  <text x="833" y="170" font-family="Arial" font-size="10pt" text-anchor="middle" dy="-3pt" fill="rgb(0,0,0)">WNT16</text>
  <rect x="803" y="170" width="60" height="20" stroke="rgb(0,0,0)" fill="white" />
  <text x="833" y="190" font-family="Arial" font-size="10pt" text-anchor="middle" dy="-3pt" fill="rgb(0,0,0)">WNT16</text>
  <rect x="266" y="70" width="60" height="20" stroke="rgb(0,0,0)" fill="white" />
  <text x="296" y="90" font-family="Arial" font-size="10pt" text-anchor="middle" dy="-3pt" fill="rgb(0,0,0)">FZD1</text>
  <rect x="266" y="90" width="60" height="20" stroke="rgb(0,0,0)" fill="white" />
  <text x="296" y="110" font-family="Arial" font-size="10pt" text-anchor="middle" dy="-3pt" fill="rgb(0,0,0)">FZD2</text>
  <rect x="266" y="250" width="60" height="20" stroke="rgb(0,0,0)" fill="white" />
  <text x="296" y="270" font-family="Arial" font-size="10pt" text-anchor="middle" dy="-3pt" fill="rgb(0,0,0)">FZD10</text>
  <rect x="266" y="230" width="60" height="20" stroke="rgb(0,0,0)" fill="white" />
  <text x="296" y="250" font-family="Arial" font-size="10pt" text-anchor="middle" dy="-3pt" fill="rgb(0,0,0)">FZD9</text>
  <rect x="266" y="210" width="60" height="20" stroke="rgb(0,0,0)" fill="white" />
  <text x="296" y="230" font-family="Arial" font-size="10pt" text-anchor="middle" dy="-3pt" fill="rgb(0,0,0)">FZD8</text>
  <rect x="266" y="190" width="60" height="20" stroke="rgb(0,0,0)" fill="white" />
  <text x="296" y="210" font-family="Arial" font-size="10pt" text-anchor="middle" dy="-3pt" fill="rgb(0,0,0)">FZD7</text>
  <rect x="266" y="170" width="60" height="20" stroke="rgb(0,0,0)" fill="white" />
  <text x="296" y="190" font-family="Arial" font-size="10pt" text-anchor="middle" dy="-3pt" fill="rgb(0,0,0)">FZD6</text>
  <rect x="266" y="150" width="60" height="20" stroke="rgb(0,0,0)" fill="white" />
  <text x="296" y="170" font-family="Arial" font-size="10pt" text-anchor="middle" dy="-3pt" fill="rgb(0,0,0)">FZD5</text>
  <rect x="266" y="130" width="60" height="20" stroke="rgb(0,0,0)" fill="white" />
  <text x="296" y="150" font-family="Arial" font-size="10pt" text-anchor="middle" dy="-3pt" fill="rgb(0,0,0)">SFRP4</text>
  <rect x="266" y="110" width="60" height="20" stroke="rgb(0,0,0)" fill="white" />
  <text x="296" y="130" font-family="Arial" font-size="10pt" text-anchor="middle" dy="-3pt" fill="rgb(0,0,0)">FZD3</text>
  <rect x="660" y="353" width="60" height="20" stroke="rgb(0,0,0)" fill="white" />
  <text x="690" y="373" font-family="Arial" font-size="10pt" text-anchor="middle" dy="-3pt" fill="rgb(0,0,0)">MAPK9</text>
  <rect x="660" y="373" width="60" height="20" stroke="rgb(0,0,0)" fill="white" />
  <text x="690" y="393" font-family="Arial" font-size="10pt" text-anchor="middle" dy="-3pt" fill="rgb(0,0,0)">MAPK10</text>
  <rect x="520" y="353" width="60" height="20" stroke="rgb(0,0,0)" fill="white" />
  <text x="550" y="373" font-family="Arial" font-size="10pt" text-anchor="middle" dy="-3pt" fill="rgb(0,0,0)">RHOA</text>
  <rect x="520" y="373" width="60" height="20" stroke="rgb(0,0,0)" fill="white" />
  <text x="550" y="393" font-family="Arial" font-size="10pt" text-anchor="middle" dy="-3pt" fill="rgb(0,0,0)">RAC1</text>
  <rect x="323" y="306" width="60" height="20" stroke="rgb(0,0,0)" fill="white" />
  <text x="353" y="326" font-family="Arial" font-size="10pt" text-anchor="middle" dy="-3pt" fill="rgb(0,0,0)">DVL1</text>
  <rect x="323" y="326" width="60" height="20" stroke="rgb(0,0,0)" fill="white" />
  <text x="353" y="346" font-family="Arial" font-size="10pt" text-anchor="middle" dy="-3pt" fill="rgb(0,0,0)">DVL2</text>
  <rect x="323" y="346" width="60" height="20" stroke="rgb(0,0,0)" fill="white" />
  <text x="353" y="366" font-family="Arial" font-size="10pt" text-anchor="middle" dy="-3pt" fill="rgb(0,0,0)">DVL3</text>
  <rect x="43" y="246" width="60" height="20" stroke="rgb(0,0,0)" fill="white" />
  <text x="73" y="266" font-family="Arial" font-size="10pt" text-anchor="middle" dy="-3pt" fill="rgb(0,0,0)">PRKCB1</text>
  <rect x="43" y="266" width="60" height="20" stroke="rgb(0,0,0)" fill="white" />
  <text x="73" y="286" font-family="Arial" font-size="10pt" text-anchor="middle" dy="-3pt" fill="rgb(0,0,0)">PRKCG</text>
  <rect x="43" y="286" width="60" height="20" stroke="rgb(0,0,0)" fill="white" />
  <text x="73" y="306" font-family="Arial" font-size="10pt" text-anchor="middle" dy="-3pt" fill="rgb(0,0,0)">PRKCD</text>
  <rect x="43" y="306" width="60" height="20" stroke="rgb(0,0,0)" fill="white" />
  <text x="73" y="326" font-family="Arial" font-size="10pt" text-anchor="middle" dy="-3pt" fill="rgb(0,0,0)">PRKCE</text>
  <rect x="43" y="326" width="60" height="20" stroke="rgb(0,0,0)" fill="white" />
  <text x="73" y="346" font-family="Arial" font-size="10pt" text-anchor="middle" dy="-3pt" fill="rgb(0,0,0)">PRKCI</text>
  <rect x="43" y="346" width="60" height="20" stroke="rgb(0,0,0)" fill="white" />
  <text x="73" y="366" font-family="Arial" font-size="10pt" text-anchor="middle" dy="-3pt" fill="rgb(0,0,0)">PRKCH</text>
  <rect x="43" y="366" width="60" height="20" stroke="rgb(0,0,0)" fill="white" />
  <text x="73" y="386" font-family="Arial" font-size="10pt" text-anchor="middle" dy="-3pt" fill="rgb(0,0,0)">PRKD1</text>
  <rect x="43" y="386" width="60" height="20" stroke="rgb(0,0,0)" fill="white" />
  <text x="73" y="406" font-family="Arial" font-size="10pt" text-anchor="middle" dy="-3pt" fill="rgb(0,0,0)">PRKCQ</text>
  <rect x="43" y="406" width="60" height="20" stroke="rgb(0,0,0)" fill="white" />
  <text x="73" y="426" font-family="Arial" font-size="10pt" text-anchor="middle" dy="-3pt" fill="rgb(0,0,0)">PRKCZ</text>
  <rect x="200" y="393" width="66" height="20" stroke="rgb(0,0,0)" fill="white" />
  <text x="233" y="413" font-family="Arial" font-size="10pt" text-anchor="middle" dy="-3pt" fill="rgb(0,0,0)">PPP2R5E</text>
  <rect x="200" y="413" width="66" height="20" stroke="rgb(0,0,0)" fill="white" />
  <text x="233" y="433" font-family="Arial" font-size="10pt" text-anchor="middle" dy="-3pt" fill="rgb(0,0,0)">PPP2R5C</text>
  <rect x="436" y="423" width="60" height="20" stroke="rgb(0,0,0)" fill="white" />
  <text x="466" y="443" font-family="Arial" font-size="10pt" text-anchor="middle" dy="-3pt" fill="rgb(0,0,0)">FRAT1</text>
  <rect x="330" y="456" width="60" height="20" stroke="rgb(0,0,0)" fill="white" />
  <text x="360" y="476" font-family="Arial" font-size="10pt" text-anchor="middle" dy="-3pt" fill="rgb(0,0,0)">AXIN1</text>
  <rect x="153" y="513" width="60" height="20" stroke="rgb(0,0,0)" fill="white" />
  <text x="183" y="533" font-family="Arial" font-size="10pt" text-anchor="middle" dy="-3pt" fill="rgb(0,0,0)">CSNK1E</text>
  <rect x="330" y="530" width="60" height="20" stroke="rgb(0,0,0)" fill="white" />
  <text x="360" y="550" font-family="Arial" font-size="10pt" text-anchor="middle" dy="-3pt" fill="rgb(0,0,0)">GSK3B</text>
  <rect x="330" y="550" width="60" height="20" stroke="rgb(0,0,0)" fill="white" />
  <text x="360" y="570" font-family="Arial" font-size="10pt" text-anchor="middle" dy="-3pt" fill="rgb(0,0,0)">APC</text>
  <rect x="243" y="613" width="60" height="20" stroke="rgb(0,0,0)" fill="white" />
  <text x="273" y="633" font-family="Arial" font-size="10pt" text-anchor="middle" dy="-3pt" fill="rgb(0,0,0)">CTNNB1</text>
  <rect x="670" y="636" width="73" height="20" stroke="rgb(0,0,0)" fill="white" />
  <text x="706" y="656" font-family="Arial" font-size="10pt" text-anchor="middle" dy="-3pt" fill="rgb(0,0,0)">FBXW2</text>
  <rect x="670" y="656" width="73" height="20" stroke="rgb(0,0,0)" fill="white" />
  <text x="706" y="676" font-family="Arial" font-size="10pt" text-anchor="middle" dy="-3pt" fill="rgb(0,0,0)">PAFAH1B1</text>
  <rect x="303" y="780" width="60" height="20" stroke="rgb(0,0,0)" fill="white" />
  <text x="333" y="800" font-family="Arial" font-size="10pt" text-anchor="middle" dy="-3pt" fill="rgb(0,0,0)">MYC</text>
  <rect x="303" y="800" width="60" height="20" stroke="rgb(0,0,0)" fill="white" />
  <text x="333" y="820" font-family="Arial" font-size="10pt" text-anchor="middle" dy="-3pt" fill="rgb(0,0,0)">CCND1</text>
  <rect x="303" y="820" width="60" height="20" stroke="rgb(0,0,0)" fill="white" />
  <text x="333" y="840" font-family="Arial" font-size="10pt" text-anchor="middle" dy="-3pt" fill="rgb(0,0,0)">CCND2</text>
  <rect x="303" y="840" width="60" height="20" stroke="rgb(0,0,0)" fill="white" />
  <text x="333" y="860" font-family="Arial" font-size="10pt" text-anchor="middle" dy="-3pt" fill="rgb(0,0,0)">CCND3</text>
  <rect x="303" y="860" width="60" height="20" stroke="rgb(0,0,0)" fill="white" />
  <text x="333" y="880" font-family="Arial" font-size="10pt" text-anchor="middle" dy="-3pt" fill="rgb(0,0,0)">FOSL1</text>
  <rect x="303" y="880" width="60" height="20" stroke="rgb(0,0,0)" fill="white" />
  <text x="333" y="900" font-family="Arial" font-size="10pt" text-anchor="middle" dy="-3pt" fill="rgb(0,0,0)">JUN</text>
  <rect x="303" y="900" width="60" height="20" stroke="rgb(0,0,0)" fill="white" />
  <text x="333" y="920" font-family="Arial" font-size="10pt" text-anchor="middle" dy="-3pt" fill="rgb(0,0,0)">PLAU</text>
  <rect x="43" y="226" width="60" height="20" stroke="rgb(0,0,0)" fill="white" />
  <text x="73" y="246" font-family="Arial" font-size="10pt" text-anchor="middle" dy="-3pt" fill="rgb(0,0,0)">PRKCA</text>
  <text x="0" y="0" font-size="12.0" font-family="times new roman">
    <tspan x="0" dy="12.0pt" font-weight="bold">Name: </tspan>
    <tspan>Wnt Signaling Pathway</tspan>
    <tspan x="0" dy="12.0pt" font-weight="bold">Email: </tspan>
    <tspan>mdl2003@columbia.edu</tspan>
    <tspan x="0" dy="12.0pt" font-weight="bold">Availability: </tspan>
    <tspan>2000, Gladstone Institutes</tspan>
    <tspan x="0" dy="12.0pt" font-weight="bold">Last modified: </tspan>
    <tspan>3/1/02</tspan>
    <tspan x="0" dy="12.0pt" font-weight="bold">Organism: </tspan>
    <tspan>Homo sapiens</tspan>
  </text>
</svg>

